<?xml version="1.0" encoding="UTF-8" standalone="no"?>
<svg
   xmlns:dc="http://purl.org/dc/elements/1.1/"
   xmlns:cc="http://creativecommons.org/ns#"
   xmlns:rdf="http://www.w3.org/1999/02/22-rdf-syntax-ns#"
   xmlns:svg="http://www.w3.org/2000/svg"
   xmlns="http://www.w3.org/2000/svg"
   xmlns:sodipodi="http://sodipodi.sourceforge.net/DTD/sodipodi-0.dtd"
   xmlns:inkscape="http://www.inkscape.org/namespaces/inkscape"
   viewBox="0 0 684.78529 684.78529"
   id="svg2"
   version="1.1"
   inkscape:version="0.91 r13725"
   sodipodi:docname="led-153883m.svg"
   width="684.78528"
   height="684.78528">
  <metadata
     id="metadata30">
    <rdf:RDF>
      <cc:Work
         rdf:about="">
        <dc:format>image/svg+xml</dc:format>
        <dc:type
           rdf:resource="http://purl.org/dc/dcmitype/StillImage" />
        <dc:title></dc:title>
      </cc:Work>
    </rdf:RDF>
  </metadata>
  <sodipodi:namedview
     pagecolor="#ffffff"
     bordercolor="#666666"
     borderopacity="1"
     objecttolerance="10"
     gridtolerance="10"
     guidetolerance="10"
     inkscape:pageopacity="0"
     inkscape:pageshadow="2"
     inkscape:window-width="1228"
     inkscape:window-height="871"
     id="namedview28"
     showgrid="false"
     fit-margin-top="200"
     fit-margin-left="0"
     fit-margin-right="0"
     fit-margin-bottom="0"
     inkscape:zoom="0.22425739"
     inkscape:cx="170.12333"
     inkscape:cy="165.1536"
     inkscape:window-x="375"
     inkscape:window-y="21"
     inkscape:window-maximized="0"
     inkscape:current-layer="svg2" />
  <defs
     id="defs4">
    <radialGradient
       id="a"
       cx="674.89001"
       cy="443.62"
       r="96.046997"
       gradientTransform="matrix(-2.4465352,2.3541577,-2.0029707,-2.2759862,2877.7549,-287.96668)"
       gradientUnits="userSpaceOnUse">
      <stop
         stop-color="#f00"
         offset="0"
         id="stop7" />
      <stop
         stop-color="#f00"
         stop-opacity="0"
         offset="1"
         id="stop9" />
    </radialGradient>
    <radialGradient
       id="b"
       cx="337.20999"
       cy="478.14999"
       r="91.143997"
       gradientTransform="matrix(0.07565,2.1648,-3.8668,0.13513,2183.3426,-695.83942)"
       gradientUnits="userSpaceOnUse">
      <stop
         stop-color="#fff"
         offset="0"
         id="stop12" />
      <stop
         stop-color="#fff"
         stop-opacity="0"
         offset="1"
         id="stop14" />
    </radialGradient>
  </defs>
  <path
     d="m 339.94256,569.14058 16.684,-39.095 -0.15435,-56.426 29.374,-11.249 -86.342,-58.378 -1.4657,-50.448 -32.729,-2.0192 2.0692,71.221 34.989,28.684 -5.2022,25.397 -40.727,29.399 -9.05,46.299 52.406,14.813 3.1184,5.107 6.2063,111.39 28.595,-1.0788 z"
     id="path16"
     inkscape:connector-curvature="0"
     style="fill:#4d4d4d;fill-rule:evenodd;stroke:#000000;stroke-width:1.83319998" />
  <path
     d="m 448.64256,681.26058 -9.7127,-129.85 -2.0442,-19.246 -26.751,-0.70782 -4.1134,-90.467 -85.955,-45.024 -2.5615,-37.051 172.03,-7.9682 -2.2097,77.286 -20.04,25.828 51.12,72.766 0.73285,25.224 -38.406,7.0559 -0.97547,119.77 z"
     id="path18"
     inkscape:connector-curvature="0"
     style="fill:#4d4d4d;fill-rule:evenodd;stroke:#000000;stroke-width:1.83319998" />
  <path
     d="m 542.37256,582.94058 c 0,0 -92.419,42.781 -336.88,11.272 -3.3986,-14.752 -1.9696,-65.389 -1.9696,-65.389 l 22.048,-7.8208 c 0,0 -2.7035,-304.16 1.2978,-329.82 -3.6331,-32.86 60.622,-110.900001 131.88,-112.240001 94.964,-1.7801 142.46,87.382001 140.79,92.436001 10.892,28.449 22.239,344.67 22.239,344.67 l 19.042,5.2119 1.5517,61.671 z"
     id="path20"
     inkscape:connector-curvature="0"
     style="opacity:0.78968003;fill:#ff0000;stroke:#ffffff;stroke-width:1.83319998" />
  <path
     d="m 540.26256,581.77058 c 0,0 -90.694,42.413 -330.64,11.079 -3.3402,-14.636 -1.9533,-64.871 -1.9533,-64.871 l 21.637,-7.752 c 0,0 -2.7471,-301.75 1.1722,-327.2 -3.576,-32.601 59.466,-110.010001 129.4,-111.310001 93.205,-1.7367 139.85,86.734001 138.21,91.747001 10.7,28.227 21.934,341.95 21.934,341.95 l 18.691,5.1765 1.542,61.183 z"
     id="path22"
     inkscape:connector-curvature="0"
     style="fill:url(#b)" />
  <path
     d="m 223.61256,526.22058 c 0,-2e-5 -6.0737,0.8363 -8.8474,1.8138 l -8.8337,3.113 c -4e-5,2e-5 165.44,24.328 335.29,-7.3371 l -2.6695,-0.90037 c -3.0575,-1.0312 -9.971,-2.7214 -12.096,-3.4482 l -302.85,6.759 z"
     id="path24"
     inkscape:connector-curvature="0"
     style="opacity:0.59523998;fill:#cccccc;fill-opacity:0.62241002;fill-rule:evenodd;stroke:#cccccc;stroke-width:1.83319998;stroke-linecap:round;stroke-linejoin:round" />
  <path
     d="M 684.61571,291.39522 A 294.71508,342.37464 88.336141 1 1 0.16954869,311.28004 294.71508,342.37464 88.336141 1 1 684.61571,291.39522 Z"
     id="path26"
     inkscape:connector-curvature="0"
     style="opacity:0.59523998;fill:url(#a)" />
</svg>
